{
    "asset" : {
        "generator" : "Khronos glTF Blender I/O v1.7.33",
        "version" : "2.0"
    },
    "scene" : 0,
    "scenes" : [
        {
            "name" : "Scene",
            "nodes" : [
                0
            ]
        }
    ],
    "nodes" : [
        {
            "mesh" : 0,
            "name" : "Cube.005"
        }
    ],
    "materials" : [
        {
            "doubleSided" : true,
            "name" : "Monitor",
            "pbrMetallicRoughness" : {
                "baseColorFactor" : [
                    0,
                    0,
                    0,
                    1
                ],
                "metallicFactor" : 0,
                "roughnessFactor" : 0.5
            }
        },
        {
            "doubleSided" : true,
            "name" : "Screen",
            "pbrMetallicRoughness" : {
                "baseColorFactor" : [
                    0.010147377848625183,
                    0.01692931540310383,
                    1,
                    1
                ],
                "metallicFactor" : 0,
                "roughnessFactor" : 0.5
            }
        },
        {
            "doubleSided" : true,
            "name" : "WhiteCupboard",
            "pbrMetallicRoughness" : {
                "baseColorFactor" : [
                    0.9819194674491882,
                    0.9819194674491882,
                    0.9819194674491882,
                    1
                ],
                "metallicFactor" : 0,
                "roughnessFactor" : 0.5
            }
        },
        {
            "doubleSided" : true,
            "name" : "Black",
            "pbrMetallicRoughness" : {
                "baseColorFactor" : [
                    0,
                    0,
                    0,
                    1
                ],
                "metallicFactor" : 0,
                "roughnessFactor" : 0.5
            }
        }
    ],
    "meshes" : [
        {
            "name" : "Cube.017",
            "primitives" : [
                {
                    "attributes" : {
                        "POSITION" : 0,
                        "NORMAL" : 1,
                        "TEXCOORD_0" : 2
                    },
                    "indices" : 3,
                    "material" : 0
                },
                {
                    "attributes" : {
                        "POSITION" : 4,
                        "NORMAL" : 5,
                        "TEXCOORD_0" : 6
                    },
                    "indices" : 7,
                    "material" : 1
                },
                {
                    "attributes" : {
                        "POSITION" : 8,
                        "NORMAL" : 9,
                        "TEXCOORD_0" : 10
                    },
                    "indices" : 11,
                    "material" : 2
                },
                {
                    "attributes" : {
                        "POSITION" : 12,
                        "NORMAL" : 13,
                        "TEXCOORD_0" : 14
                    },
                    "indices" : 15,
                    "material" : 3
                }
            ]
        }
    ],
    "accessors" : [
        {
            "bufferView" : 0,
            "componentType" : 5126,
            "count" : 116,
            "max" : [
                -0.059516243636608124,
                0.7358361482620239,
                0.4328853189945221
            ],
            "min" : [
                -0.7012032270431519,
                0.31335699558258057,
                0.08150534331798553
            ],
            "type" : "VEC3"
        },
        {
            "bufferView" : 1,
            "componentType" : 5126,
            "count" : 116,
            "type" : "VEC3"
        },
        {
            "bufferView" : 2,
            "componentType" : 5126,
            "count" : 116,
            "type" : "VEC2"
        },
        {
            "bufferView" : 3,
            "componentType" : 5123,
            "count" : 174,
            "type" : "SCALAR"
        },
        {
            "bufferView" : 4,
            "componentType" : 5126,
            "count" : 4,
            "max" : [
                -0.08112968504428864,
                0.7107455730438232,
                0.37723031640052795
            ],
            "min" : [
                -0.6795898079872131,
                0.4095081388950348,
                0.10599485039710999
            ],
            "type" : "VEC3"
        },
        {
            "bufferView" : 5,
            "componentType" : 5126,
            "count" : 4,
            "type" : "VEC3"
        },
        {
            "bufferView" : 6,
            "componentType" : 5126,
            "count" : 4,
            "type" : "VEC2"
        },
        {
            "bufferView" : 7,
            "componentType" : 5123,
            "count" : 6,
            "type" : "SCALAR"
        },
        {
            "bufferView" : 8,
            "componentType" : 5126,
            "count" : 193,
            "max" : [
                0.9786964058876038,
                0.35675036907196045,
                0.4761069715023041
            ],
            "min" : [
                -0.9070526361465454,
                -1.0125330686569214,
                -0.5287217497825623
            ],
            "type" : "VEC3"
        },
        {
            "bufferView" : 9,
            "componentType" : 5126,
            "count" : 193,
            "type" : "VEC3"
        },
        {
            "bufferView" : 10,
            "componentType" : 5126,
            "count" : 193,
            "type" : "VEC2"
        },
        {
            "bufferView" : 11,
            "componentType" : 5123,
            "count" : 354,
            "type" : "SCALAR"
        },
        {
            "bufferView" : 12,
            "componentType" : 5126,
            "count" : 100,
            "max" : [
                0.5043947696685791,
                0.06132202222943306,
                0.42593082785606384
            ],
            "min" : [
                0.2190447449684143,
                -0.10969285666942596,
                0.4194592535495758
            ],
            "type" : "VEC3"
        },
        {
            "bufferView" : 13,
            "componentType" : 5126,
            "count" : 100,
            "type" : "VEC3"
        },
        {
            "bufferView" : 14,
            "componentType" : 5126,
            "count" : 100,
            "type" : "VEC2"
        },
        {
            "bufferView" : 15,
            "componentType" : 5123,
            "count" : 150,
            "type" : "SCALAR"
        }
    ],
    "bufferViews" : [
        {
            "buffer" : 0,
            "byteLength" : 1392,
            "byteOffset" : 0
        },
        {
            "buffer" : 0,
            "byteLength" : 1392,
            "byteOffset" : 1392
        },
        {
            "buffer" : 0,
            "byteLength" : 928,
            "byteOffset" : 2784
        },
        {
            "buffer" : 0,
            "byteLength" : 348,
            "byteOffset" : 3712
        },
        {
            "buffer" : 0,
            "byteLength" : 48,
            "byteOffset" : 4060
        },
        {
            "buffer" : 0,
            "byteLength" : 48,
            "byteOffset" : 4108
        },
        {
            "buffer" : 0,
            "byteLength" : 32,
            "byteOffset" : 4156
        },
        {
            "buffer" : 0,
            "byteLength" : 12,
            "byteOffset" : 4188
        },
        {
            "buffer" : 0,
            "byteLength" : 2316,
            "byteOffset" : 4200
        },
        {
            "buffer" : 0,
            "byteLength" : 2316,
            "byteOffset" : 6516
        },
        {
            "buffer" : 0,
            "byteLength" : 1544,
            "byteOffset" : 8832
        },
        {
            "buffer" : 0,
            "byteLength" : 708,
            "byteOffset" : 10376
        },
        {
            "buffer" : 0,
            "byteLength" : 1200,
            "byteOffset" : 11084
        },
        {
            "buffer" : 0,
            "byteLength" : 1200,
            "byteOffset" : 12284
        },
        {
            "buffer" : 0,
            "byteLength" : 800,
            "byteOffset" : 13484
        },
        {
            "buffer" : 0,
            "byteLength" : 300,
            "byteOffset" : 14284
        }
    ],
    "buffers" : [
        {
            "byteLength" : 14584,
            "uri" : "TeachDesk.bin"
        }
    ]
}
