# Blender v3.0.0 OBJ File: 'SkeleTree_1.blend'
# www.blender.org
mtllib SkeleTree_1.mtl
o SkeleTree_1_Cube.020
v -0.349640 -1.470567 -0.445128
v -0.357325 1.530515 -0.325186
v 0.832857 0.402798 0.216638
v 0.827773 0.482060 0.238861
v 0.373149 0.655083 1.298356
v 0.459398 0.655103 1.300275
v 1.110880 0.954028 1.043738
v 1.093268 0.958275 0.951641
v 0.543646 1.848707 0.480642
v 0.520257 1.887663 0.543351
v 0.522408 1.895784 0.453315
v -0.445749 1.994282 0.385161
v -0.399755 2.018549 0.416842
v 0.027486 2.595021 0.639416
v -0.011945 2.622017 0.548782
v 0.070547 2.600991 0.535244
v -1.291912 0.175487 -0.092270
v -0.305777 -0.109628 0.105537
v -0.415601 -0.116856 -0.129848
v -0.346880 0.086423 -0.245048
v -0.237021 0.095084 -0.002260
v -1.332724 0.096378 -0.088473
v 0.095735 1.839461 0.567016
v -0.110165 1.905463 0.532639
v 0.036707 1.864888 0.408319
v 0.110114 2.573731 0.626523
v -0.223505 1.828948 0.495618
v -0.192249 1.837636 0.355582
v -0.112508 1.888337 0.404066
v -0.051846 1.896593 0.636333
v 0.137891 1.771176 0.391421
v 0.070470 1.744487 0.520425
v -0.129290 1.557519 0.407501
v -0.125066 1.608576 0.234392
v 0.043527 1.639797 0.242820
v -0.256030 1.293022 -0.063794
v -0.086547 1.468124 -0.051075
v -0.228979 1.468718 0.050740
v -0.427329 1.531807 -0.278640
v 0.545417 0.271939 0.319528
v 0.627207 0.485207 0.580438
v 0.649904 0.287605 0.508390
v 0.511971 0.344347 0.893203
v 0.337351 0.203254 0.631626
v 0.372031 0.476942 0.699881
v 0.560977 0.481999 0.793452
v 0.415197 0.585156 1.350188
v 0.443588 0.454987 0.412388
v 1.182627 0.908460 0.979408
v 0.233421 -0.100331 -0.048274
v 0.034407 -0.094856 0.172132
v 0.152778 0.165489 -0.303852
v 0.449265 0.123335 0.355480
v 0.215065 0.300779 0.386383
v 0.377033 0.292803 0.213628
v -0.015205 0.177186 -0.025437
v -0.250686 0.221244 -0.244387
v -0.086842 0.210496 -0.540598
v 0.127262 1.029178 -0.042755
v -0.007128 1.033590 0.181893
v -0.207131 1.043283 0.028123
v -0.071156 1.226085 -0.131653
v 0.100292 -1.470590 -0.624710
v 0.282347 -1.470428 -0.176334
v -0.172222 -1.470542 0.004408
v -0.295334 -0.409965 -0.153080
v 0.028205 -0.412461 -0.294499
v 0.152053 -0.353178 0.058350
v -0.171378 -0.350887 0.198750
v -0.223505 1.828948 0.495618
v -0.192249 1.837636 0.355582
v -0.112508 1.888337 0.404066
v -0.143419 1.875288 0.546118
vt 2.782503 -0.517478
vt 2.592158 -1.235725
vt 2.782503 -1.231201
vt 1.502573 2.593446
vt 1.844851 1.861188
vt 1.616496 2.601388
vt 1.888974 2.610795
vt 2.028493 1.797059
vt 1.982215 2.597163
vt -0.223761 -0.487553
vt -0.248688 -0.288272
vt -0.489667 -0.281927
vt 1.361354 1.182085
vt 1.716960 1.414682
vt 1.528430 1.404181
vt 2.588531 0.932064
vt 2.680929 1.787954
vt 2.484009 1.725589
vt 0.327324 0.370848
vt 0.094356 0.845080
vt -0.186987 0.877110
vt 0.990588 -0.239940
vt 1.966571 -0.440862
vt 2.087216 -0.258753
vt -1.935001 -0.798044
vt -1.023071 -0.421560
vt -1.989460 -0.715206
vt 2.722606 0.932064
vt 2.484009 -0.075492
vt 2.722606 -0.239940
vt 1.505433 0.728075
vt 1.733583 0.788194
vt 0.650231 -1.008084
vt 0.575715 -0.384253
vt 0.290376 -0.683592
vt 1.860951 1.413234
vt 2.097813 0.806532
vt 2.023150 1.677891
vt 2.318368 0.753545
vt 0.940398 -0.378018
vt 2.693299 2.154807
vt 2.769334 1.787955
vt 2.871660 1.995639
vt -0.499120 2.410881
vt -0.590690 2.325266
vt -0.499120 2.299093
vt 2.065559 -0.660004
vt 2.311351 -0.390725
vt 2.455138 -0.700293
vt -0.405574 2.122930
vt -0.233290 1.956098
vt -0.145641 2.170917
vt 1.303823 0.953080
vt 1.668702 1.726518
vt -0.890210 -0.610589
vt -0.771061 -0.752017
vt -0.508614 -0.658464
vt -0.102520 0.971912
vt 0.008595 0.980172
vt -0.057721 1.066554
vt 2.592158 -0.466288
vt 0.241360 -0.999079
vt 0.374346 1.802227
vt 0.008595 1.829160
vt 0.276997 1.454714
vt 2.804332 -1.290956
vt 2.748698 -1.235725
vt 2.708436 -1.291186
vt 1.717919 1.828103
vt -1.146355 2.488158
vt -1.197125 2.402979
vt -0.855060 2.449965
vt -0.855060 2.266543
vt -1.142130 2.254051
vt 0.537367 0.971912
vt 0.537367 0.971912
vt 0.537367 0.971912
vt 0.898397 1.085306
vt 0.925373 0.971912
vt 0.925373 1.126249
vt -1.930773 2.751059
vt -1.457241 2.556445
vt -1.647154 2.804028
vt 1.084185 2.601388
vt 1.084185 2.769801
vt 0.940398 2.765101
vt 0.537367 0.971912
vt 0.537367 0.971912
vt 0.537367 0.971912
vt 0.537367 0.971912
vt 0.524698 0.500219
vt -0.535741 -0.034654
vt -0.923542 -0.090234
vt -0.658621 1.740794
vt -1.196398 1.202963
vt -0.658621 1.201524
vt 1.844851 1.855980
vt 0.413430 2.781004
vt 0.244524 2.622827
vt 0.413430 2.591362
vt 2.871660 2.356955
vt 2.484009 2.205626
vt 2.693299 2.456013
vt 2.538486 2.556146
vt 1.538448 1.685574
vt -0.063164 1.963498
vt -0.863703 2.510462
vt -0.955481 2.808814
vt -0.911862 2.488159
vt -0.526538 2.858979
vt -0.683066 2.566064
vt -0.526538 2.525474
vt 0.501245 2.878590
vt 0.413430 2.628573
vt 0.501245 2.591362
vt 2.762795 2.356956
vt 2.839119 2.875118
vt 2.693299 2.814023
vt 2.839119 2.378130
vt 2.892071 -0.208623
vt 2.722606 0.245528
vt 2.792015 -0.216714
vt -1.085539 1.747499
vt -1.016802 2.169609
vt -0.765515 2.525474
vt -0.683066 2.949092
vt -0.855060 2.803988
vt 2.693299 1.794385
vt 2.599889 1.787955
vt 0.940398 1.112823
vt -1.202563 2.386933
vt -1.202563 2.852775
vt -1.457241 2.747772
vt 0.152646 2.899421
vt 0.244524 2.602958
vt 0.244524 2.897935
vt 2.899457 1.399206
vt 2.680929 1.062823
vt 2.899457 0.932064
vt 0.537367 0.971912
vt 0.882906 1.010935
vt 0.640555 1.859857
vt 0.784497 0.971912
vt 2.804332 -1.962595
vt 2.904439 0.756172
vt 2.722606 0.405738
vt 2.904439 0.330462
vt -0.626356 2.525474
vt -0.855060 1.840959
vt -0.626356 1.747499
vt -0.489667 1.745919
vt -0.489667 2.299093
vt -0.590828 1.457338
vt -0.489667 1.201524
vt 0.257055 2.591362
vt 0.164820 2.070903
vt 0.847643 2.107807
vt 0.537367 2.529599
vt -0.327006 2.639292
vt -0.049658 -0.312366
vt 2.484009 -0.239940
vt 1.844851 -0.189352
vt -0.489667 -1.862744
vt -0.705236 -1.710705
vt -1.024274 1.132174
vt 0.407689 -1.962595
vt 0.940398 -1.911698
vt 2.592158 -1.962595
vt -1.857626 2.424166
vt -1.457241 1.287524
vt 2.667910 -0.529008
vt 2.680929 0.953217
vt 0.940398 -0.323916
vt -1.197125 1.201524
vt -1.197125 2.386932
vt -1.457241 2.243082
vt -0.590828 2.436328
vt 2.865253 -0.239940
vt -0.670270 2.531644
vt 0.537367 0.971912
vt 0.452888 0.705911
vt -1.197125 1.747499
vt 0.898397 1.677162
vt -0.699348 -1.962595
vt 2.817037 1.755117
vt 2.680929 1.701989
vt 2.817037 1.408392
vt 2.632929 2.841840
vt 2.484009 2.841840
vt 2.562918 2.556146
vt 2.677791 2.225680
vt -0.104502 0.971912
vt 2.638126 -0.517479
vt 2.750261 -0.245119
vt 2.592157 -0.245119
vt -0.863703 2.846363
vt 0.451164 2.903760
vt 2.484009 1.907458
vt 2.892071 0.330462
vt -0.658621 1.206132
vt -0.600520 1.201523
vt -0.600520 1.600375
vt -0.683066 2.569758
vt 0.871037 0.726182
vt 0.008596 2.591362
vt -1.131827 2.488159
vt -0.955481 2.810785
vt -1.197125 2.810785
vt 2.807920 1.408392
vt 2.592157 -1.863255
vt 2.887078 -1.466651
vt 2.804332 -1.499961
vt 2.887077 -1.962595
vt 2.895054 -0.402116
vt 2.782503 -0.429652
vt 2.895054 -1.235725
vt 2.977886 1.787954
vt 2.977886 2.590575
vt 2.871660 2.460948
vt 2.895054 -1.215539
vt 2.989460 -1.235726
vt 2.989460 -0.490990
vt 0.537367 2.416576
vt 0.898397 2.640604
vt 0.008596 2.778130
vt 2.208806 -0.167883
vt 1.526618 -0.239940
vt -0.489667 1.201524
vt 2.049516 -1.915259
vt -1.989460 1.201524
vn 0.9380 0.0166 -0.3462
vn -0.8979 0.1013 0.4284
vn -0.8648 0.1066 0.4907
vn -0.9010 0.1005 0.4219
vn 0.1328 -0.0826 0.9877
vn 0.7401 -0.5665 -0.3624
vn -0.8665 0.4841 0.1216
vn -0.6259 0.1032 -0.7731
vn 0.9615 0.2131 -0.1737
vn -0.1436 0.1746 0.9741
vn -0.0474 0.4550 0.8892
vn -0.0387 0.4757 0.8787
vn -0.0657 -0.0725 -0.9952
vn -0.1792 -0.4207 -0.8893
vn -0.0502 -0.0220 -0.9985
vn -0.2188 -0.9668 0.1318
vn -0.5622 -0.4342 0.7039
vn 0.8601 -0.1930 -0.4722
vn -0.1201 -0.4161 0.9013
vn 0.8096 -0.3220 0.4907
vn 0.6788 -0.1579 -0.7171
vn -0.1252 0.5680 0.8135
vn 0.2696 0.9486 0.1658
vn 0.2697 0.9485 0.1659
vn 0.2703 0.9484 0.1661
vn -0.1964 0.2563 0.9464
vn 0.3873 -0.2182 0.8958
vn -0.1868 0.5061 0.8420
vn -0.4583 0.7576 -0.4647
vn -0.9605 -0.0323 0.2764
vn -0.4727 -0.4162 0.7767
vn -0.7355 0.5269 -0.4260
vn 0.4993 0.8646 -0.0556
vn 0.7420 0.0433 0.6690
vn 0.8876 -0.3894 -0.2461
vn -0.7103 -0.1496 -0.6878
vn 0.3449 -0.9028 0.2568
vn -0.0181 0.5883 0.8084
vn -0.5991 0.6956 0.3965
vn 0.1929 0.5025 -0.8428
vn -0.0536 0.5196 -0.8527
vn 0.1156 0.5907 -0.7986
vn -0.8420 -0.1956 -0.5027
vn 0.0180 0.1320 -0.9911
vn -0.1951 0.4228 -0.8850
vn 0.5960 -0.7654 -0.2429
vn -0.8552 -0.3185 0.4088
vn 0.1576 0.9785 -0.1332
vn 0.0077 -0.0155 -0.9998
vn 0.2406 0.7979 -0.5527
vn 0.1708 0.0593 -0.9835
vn -0.3124 -0.6628 -0.6806
vn 0.6691 0.3881 -0.6337
vn -0.3994 -0.0916 -0.9122
vn 0.0002 -1.0000 0.0001
vn -0.0000 -1.0000 0.0001
vn 0.0692 -0.5689 0.8195
vn 0.9549 0.0014 0.2969
vn -0.2663 0.8486 0.4572
vn -0.1405 0.8807 -0.4523
vn -0.9607 -0.1630 -0.2246
vn 0.4796 0.5943 -0.6456
vn 0.2163 -0.4758 0.8526
vn 0.2448 0.5500 -0.7985
vn 0.1946 0.5083 -0.8389
vn 0.2516 0.5567 -0.7917
vn 0.4131 0.8943 0.1720
vn -0.5099 -0.1215 0.8516
vn -0.4957 -0.1011 0.8626
vn -0.4905 -0.0961 0.8661
vn 0.2067 -0.9739 -0.0935
vn 0.2219 -0.7890 0.5729
vn -0.1076 0.9904 0.0868
vn 0.0733 0.2531 -0.9647
vn -0.4490 -0.7538 -0.4798
vn 0.0975 0.9867 0.1298
vn 0.1007 0.9870 0.1256
vn 0.1012 0.9870 0.1247
vn -0.8574 -0.1819 0.4815
vn -0.1008 0.9926 -0.0683
vn 0.8583 -0.0829 0.5065
vn 0.8597 -0.0892 0.5030
vn 0.8590 -0.0864 0.5046
vn -0.4145 0.2177 -0.8836
vn 0.0125 -0.8835 0.4682
vn -0.9002 -0.3365 0.2764
vn 0.0061 0.9584 -0.2853
vn 0.9556 -0.1614 0.2467
vn 0.5279 -0.8357 0.1516
vn -0.5843 0.7978 0.1485
vn 0.6807 -0.1013 -0.7255
vn 0.2526 -0.8973 0.3620
vn -0.8649 0.1328 0.4841
vn -0.1640 0.9663 -0.1983
vn 0.9217 -0.0844 -0.3786
vn 0.8498 -0.1293 0.5109
vn -0.6049 -0.1820 0.7753
vn -0.8490 0.2063 -0.4865
vn 0.7033 0.2562 -0.6631
vn -0.3782 0.2615 -0.8880
vn -0.3638 0.2574 -0.8952
vn -0.3847 0.2633 -0.8847
vn 0.9173 0.1815 -0.3544
vn 0.9124 0.1773 -0.3689
vn 0.9118 0.1777 -0.3703
vn 0.3845 -0.1493 0.9110
vn 0.3717 -0.1560 0.9152
vn 0.3931 -0.1449 0.9080
vn -0.9357 -0.0562 0.3484
vn -0.9316 -0.0555 0.3593
vn -0.9385 -0.0584 0.3404
vn 0.9189 0.0139 -0.3942
vn -0.1162 0.1740 -0.9779
vn 0.4085 -0.0504 0.9113
vn -0.8627 0.1071 0.4943
vn -0.1590 0.1290 0.9788
vn 0.0820 0.9940 -0.0725
vn -0.1835 -0.4370 -0.8806
vn 0.2690 0.9488 0.1656
vn -0.5332 0.8231 -0.1956
vn -0.9513 -0.0763 0.2987
vn 0.8961 0.4397 0.0611
vn 0.3816 -0.8350 0.3963
vn -0.6880 0.7209 -0.0835
vn 0.7597 0.4397 -0.4791
vn -0.8514 -0.3782 0.3635
vn 0.8382 0.2195 -0.4992
vn -0.5386 -0.3937 -0.7449
vn 0.0003 -1.0000 0.0002
vn -0.8946 0.0019 0.4468
vn -0.4376 -0.3848 -0.8127
vn 0.9344 -0.0813 0.3469
vn -0.7696 0.5475 0.3287
vn -0.3201 0.8322 -0.4527
vn -0.9495 -0.2939 -0.1099
vn 0.4293 -0.4651 -0.7742
vn 0.6715 -0.7125 0.2035
vn 0.3894 0.5532 -0.7364
vn -0.5323 -0.8293 -0.1703
vn 0.1912 0.5044 -0.8420
vn -0.5160 -0.1278 0.8470
vn 0.1014 -0.4598 0.8822
vn -0.0796 0.9792 0.1865
vn 0.2682 -0.3903 -0.8808
vn -0.3898 -0.7263 -0.5661
vn 0.7158 0.2611 -0.6477
vn 0.0973 0.9867 0.1304
vn 0.8588 -0.0855 0.5051
vn 0.3720 -0.9191 -0.1296
vn -0.4162 0.2206 -0.8821
vn -0.9901 0.1350 -0.0383
vn 0.1226 0.9464 -0.2987
vn 0.8843 -0.3090 0.3501
vn 0.2321 -0.6527 0.7212
vn -0.4443 0.0431 0.8948
vn -0.4987 0.8460 -0.1887
vn 0.4190 0.2680 -0.8676
vn 0.3492 -0.8743 0.3370
vn -0.8812 0.1619 0.4442
vn -0.1907 0.9692 -0.1558
vn 0.8848 -0.0128 -0.4659
vn 0.8461 -0.1329 0.5161
vn -0.6872 -0.1955 0.6997
vn -0.8531 0.2062 -0.4793
vn 0.5911 0.2494 -0.7671
vn -0.3584 0.2558 -0.8979
vn 0.9181 0.1811 -0.3527
vn 0.3648 -0.1595 0.9173
vn -0.9288 -0.0534 0.3666
usemtl Wood
s 1
f 16/1/1 23/2/1 25/3/1
f 15/4/2 30/5/3 14/6/4
f 14/7/5 23/8/5 26/9/5
f 53/10/6 40/11/6 42/12/6
f 38/13/7 33/14/7 34/15/7
f 15/16/8 25/17/8 24/18/8
f 59/19/9 35/20/9 32/21/9
f 17/22/10 18/23/11 21/24/12
f 17/25/13 19/26/14 22/27/15
f 22/28/16 19/29/16 18/30/16
f 61/31/17 60/32/17 33/14/17
f 67/33/18 52/34/18 50/35/18
f 33/36/19 60/37/19 32/38/19
f 60/37/20 59/39/20 32/38/20
f 67/33/21 58/40/21 52/34/21
f 21/41/22 51/42/22 56/43/22
f 16/44/23 14/45/24 26/46/25
f 18/23/26 69/47/26 51/48/26
f 69/47/27 68/49/27 51/48/27
f 21/24/28 18/23/28 51/48/28
f 54/50/29 48/51/29 55/52/29
f 36/53/30 33/14/30 38/13/30
f 30/5/31 27/54/31 33/14/31
f 20/55/32 57/56/32 58/57/32
f 7/58/33 49/59/33 8/60/33
f 51/48/34 68/49/34 50/61/34
f 68/62/35 67/33/35 50/35/35
f 19/26/36 20/55/36 58/57/36
f 44/63/37 42/64/37 43/65/37
f 5/66/38 47/67/38 6/68/38
f 30/5/39 24/69/39 27/54/39
f 28/70/40 29/71/40 34/72/40
f 29/71/41 35/73/41 34/72/41
f 29/71/42 25/74/42 35/73/42
f 72/75/43 24/76/44 29/77/45
f 73/78/46 27/79/46 24/80/46
f 19/81/47 69/82/47 18/83/47
f 25/84/48 29/85/48 24/86/48
f 70/87/49 28/88/50 27/89/51
f 71/90/52 29/77/45 28/88/50
f 62/91/53 35/20/53 59/19/53
f 19/26/54 67/92/54 66/93/54
f 63/94/55 65/95/55 1/96/56
f 30/97/57 33/36/57 32/38/57
f 46/98/58 42/99/58 41/100/58
f 57/101/59 21/41/59 56/43/59
f 37/102/60 34/103/60 35/104/60
f 34/15/61 27/54/61 28/105/61
f 40/106/62 55/52/62 48/51/62
f 23/8/63 30/97/63 32/38/63
f 13/107/64 71/108/65 12/109/66
f 13/110/67 73/111/67 72/112/67
f 13/113/68 70/114/69 73/115/70
f 9/116/71 32/117/71 31/118/71
f 10/119/72 32/117/72 9/116/72
f 11/120/73 23/121/73 10/122/73
f 11/123/74 31/124/74 25/74/74
f 39/125/75 62/126/75 36/127/75
f 39/128/76 37/102/77 2/129/78
f 39/130/79 36/53/79 38/13/79
f 4/131/80 48/132/80 41/133/80
f 4/134/81 42/135/82 3/136/83
f 4/137/84 40/138/84 48/139/84
f 47/140/85 44/63/85 43/65/85
f 5/141/86 44/142/86 47/143/86
f 6/68/87 45/144/87 5/66/87
f 6/145/88 43/146/88 46/147/88
f 49/148/89 46/149/89 41/150/89
f 8/60/90 45/151/90 7/58/90
f 8/152/91 41/153/91 48/154/91
f 44/63/92 50/155/92 53/156/92
f 54/157/93 51/158/93 44/142/93
f 55/52/94 56/159/94 54/50/94
f 55/160/95 50/35/95 52/34/95
f 60/37/96 52/161/96 59/39/96
f 61/31/97 56/162/97 60/32/97
f 62/163/98 57/56/98 61/164/98
f 62/91/99 52/34/99 58/40/99
f 67/92/100 1/165/101 66/93/102
f 67/33/103 64/166/104 63/167/105
f 69/47/106 64/168/107 68/49/108
f 66/169/109 65/170/110 69/82/111
f 16/1/112 26/171/112 23/2/112
f 16/172/113 25/17/113 15/16/113
f 14/7/114 30/97/114 23/8/114
f 15/4/2 24/69/115 30/5/3
f 17/22/10 22/173/116 18/23/11
f 17/174/117 21/175/117 20/176/117
f 17/25/13 20/55/118 19/26/14
f 16/44/23 15/177/119 14/45/24
f 54/50/120 45/151/120 48/51/120
f 36/53/121 61/31/121 33/14/121
f 11/120/122 10/122/122 9/178/122
f 44/63/123 53/156/123 42/64/123
f 72/112/124 73/111/124 24/179/124
f 73/180/125 70/87/49 27/89/51
f 19/81/126 66/169/126 69/82/126
f 70/87/49 71/90/52 28/88/50
f 71/90/52 72/75/43 29/77/45
f 62/91/127 37/181/127 35/20/127
f 19/26/128 58/57/128 67/92/128
f 63/94/55 64/182/129 65/95/55
f 44/142/130 45/183/130 54/157/130
f 62/163/131 61/164/131 36/184/131
f 46/185/132 43/186/132 42/187/132
f 57/188/133 20/189/133 21/190/133
f 37/102/134 38/191/134 34/103/134
f 34/15/135 33/14/135 27/54/135
f 40/11/136 53/10/136 55/160/136
f 32/21/137 35/20/137 31/192/137
f 25/74/138 31/124/138 35/73/138
f 12/193/139 71/194/139 70/195/139
f 13/107/64 72/196/140 71/108/65
f 13/113/68 12/197/141 70/114/69
f 10/198/142 23/8/142 32/38/142
f 11/120/143 25/199/143 23/121/143
f 11/200/144 9/201/144 31/202/144
f 39/125/145 2/203/145 62/126/145
f 2/204/146 37/181/146 62/91/146
f 39/128/76 38/191/147 37/102/77
f 4/134/81 41/205/148 42/135/82
f 3/206/149 42/207/149 40/208/149
f 4/137/150 3/209/150 40/138/150
f 5/141/151 45/183/151 44/142/151
f 6/68/152 46/210/152 45/144/152
f 6/211/153 47/212/153 43/213/153
f 49/214/154 7/215/154 46/216/154
f 7/217/155 45/218/155 46/219/155
f 8/60/156 48/51/156 45/151/156
f 8/220/157 49/221/157 41/222/157
f 44/63/158 51/223/158 50/155/158
f 54/157/159 56/224/159 51/158/159
f 55/52/160 52/225/160 56/159/160
f 55/160/161 53/10/161 50/35/161
f 60/37/162 56/226/162 52/161/162
f 61/31/163 57/227/163 56/162/163
f 62/163/164 58/57/164 57/56/164
f 62/91/165 59/19/165 52/34/165
f 67/92/100 63/228/166 1/165/101
f 67/33/103 68/62/167 64/166/104
f 69/47/106 65/229/168 64/168/107
f 66/169/109 1/230/169 65/170/110
