# Blender v3.0.0 OBJ File: ''
# www.blender.org
mtllib rock_1.mtl
o Rock_01_Icosphere.000
v 0.125517 0.245497 -0.449810
v 0.377380 -0.255715 -0.268754
v -0.185927 -0.256489 -0.449319
v -0.092339 -0.151022 0.304440
v -0.024957 -0.007439 0.497726
v -0.303060 -0.005390 0.405207
v 0.459075 0.235928 0.032212
v 0.378366 -0.256488 0.319257
v 0.125870 0.253242 0.510939
v -0.407816 0.227777 0.310896
v -0.472795 0.004913 0.152367
v -0.030733 0.319430 0.026579
v -0.434926 0.243841 0.027137
v -0.435658 0.243856 -0.266945
v -0.482047 -0.007118 -0.119970
v -0.030085 -0.268600 0.026261
vt 0.406619 0.638829
vt 0.643273 0.502359
vt 0.643273 0.776520
vt 0.190583 0.354825
vt 0.187332 0.458145
vt 0.072683 0.403363
vt 0.242006 0.458145
vt 0.242006 0.681214
vt 0.025770 0.524931
vt 0.822520 0.671924
vt 0.912693 0.423426
vt 1.000000 0.514474
vt 0.000961 0.281859
vt 0.828515 0.163126
vt 0.750964 0.423426
vt 0.614989 0.235873
vt 0.442226 0.423426
vt 0.716780 0.809139
vt 0.678143 0.682832
vt 0.801368 0.710290
vt 0.613349 0.000000
vt 0.437034 0.860635
vt 0.000000 0.801941
vt 0.477559 0.423426
vt 0.775066 0.586663
vt 0.643273 0.551191
vt 0.822520 0.423426
vt 0.241625 0.221488
vt 0.959394 0.644064
vt 0.406619 0.374382
vt 0.406619 0.164807
vt 0.435672 0.293729
vt 1.000000 0.812233
vt 0.000000 0.157118
vt 0.175442 0.000000
vt 0.822520 0.829358
vt 0.406619 0.108305
vn 0.3001 -0.1871 -0.9354
vn -0.2149 -0.7466 0.6296
vn 0.9867 -0.1628 -0.0019
vn -0.3519 0.2108 0.9120
vn -0.4532 -0.8528 0.2594
vn -0.4555 -0.8484 0.2697
vn -0.4559 -0.8476 0.2715
vn 0.1683 0.9809 -0.0970
vn 0.8067 0.2052 -0.5542
vn -0.9723 0.2090 0.1047
vn 0.1666 0.9827 0.0804
vn -0.3048 0.1882 -0.9336
vn 0.8088 0.1916 0.5560
vn -0.0589 0.9833 -0.1719
vn -0.7970 -0.1887 -0.5737
vn -0.4532 -0.8529 0.2591
vn -0.3120 0.1328 0.9408
vn -0.1890 -0.7556 0.6272
vn -0.1103 0.9793 0.1695
vn -0.9875 0.1578 0.0025
vn -0.1832 0.9804 0.0730
vn 0.2834 -0.2114 0.9354
vn -0.1838 0.9830 0.0005
vn -0.6062 -0.7934 0.0556
vn -0.8238 -0.1489 0.5470
vn -0.9804 0.1957 0.0247
vn 0.0107 -0.9995 -0.0289
vn -0.4915 -0.8597 0.1392
vn 0.0306 -0.9995 -0.0014
vn -0.2159 -0.9158 0.3388
usemtl Material.002
s 1
f 1/1/1 2/2/1 3/3/1
f 4/4/2 5/5/2 6/6/2
f 2/7/3 7/8/3 8/9/3
f 9/10/4 10/11/4 6/12/4
f 11/13/5 4/4/6 6/6/7
f 7/14/8 1/15/8 12/16/8
f 7/17/9 2/2/9 1/1/9
f 10/18/10 13/19/10 11/20/10
f 9/21/11 7/14/11 12/16/11
f 14/22/12 1/1/12 3/3/12
f 9/23/13 8/9/13 7/8/13
f 1/15/14 14/24/14 12/16/14
f 15/25/15 14/26/15 3/27/15
f 4/4/6 11/13/5 16/28/16
f 5/29/17 9/10/17 6/12/17
f 5/5/18 4/4/18 8/30/18
f 10/31/19 9/21/19 12/16/19
f 13/19/20 14/26/20 11/20/20
f 13/32/21 10/31/21 12/16/21
f 8/33/22 9/10/22 5/29/22
f 14/24/23 13/32/23 12/16/23
f 11/13/24 15/34/24 3/35/24
f 10/18/25 11/20/25 6/36/25
f 14/26/26 15/25/26 11/20/26
f 16/28/27 3/35/27 2/37/27
f 16/28/28 11/13/28 3/35/28
f 8/30/29 16/28/29 2/37/29
f 16/28/30 8/30/30 4/4/30
