{
    "asset" : {
        "generator" : "Khronos glTF Blender I/O v1.7.33",
        "version" : "2.0"
    },
    "scene" : 0,
    "scenes" : [
        {
            "name" : "Scene",
            "nodes" : [
                2
            ]
        }
    ],
    "nodes" : [
        {
            "name" : "Bone",
            "rotation" : [
                -0.07341622561216354,
                -0.6344326138496399,
                0.49144163727760315,
                0.5921069383621216
            ],
            "scale" : [
                0.5550291538238525,
                0.5550293326377869,
                0.5550292730331421
            ],
            "translation" : [
                0.6111575961112976,
                -0.001993343234062195,
                -0.8789417743682861
            ]
        },
        {
            "mesh" : 0,
            "name" : "Knife",
            "skin" : 0
        },
        {
            "children" : [
                1,
                0
            ],
            "name" : "Armature"
        }
    ],
    "animations" : [
        {
            "channels" : [
                {
                    "sampler" : 0,
                    "target" : {
                        "node" : 0,
                        "path" : "translation"
                    }
                },
                {
                    "sampler" : 1,
                    "target" : {
                        "node" : 0,
                        "path" : "rotation"
                    }
                },
                {
                    "sampler" : 2,
                    "target" : {
                        "node" : 0,
                        "path" : "scale"
                    }
                }
            ],
            "name" : "knife_idle",
            "samplers" : [
                {
                    "input" : 7,
                    "interpolation" : "LINEAR",
                    "output" : 8
                },
                {
                    "input" : 9,
                    "interpolation" : "LINEAR",
                    "output" : 10
                },
                {
                    "input" : 9,
                    "interpolation" : "LINEAR",
                    "output" : 11
                }
            ]
        },
        {
            "channels" : [
                {
                    "sampler" : 0,
                    "target" : {
                        "node" : 0,
                        "path" : "translation"
                    }
                },
                {
                    "sampler" : 1,
                    "target" : {
                        "node" : 0,
                        "path" : "rotation"
                    }
                },
                {
                    "sampler" : 2,
                    "target" : {
                        "node" : 0,
                        "path" : "scale"
                    }
                }
            ],
            "name" : "knife_slash",
            "samplers" : [
                {
                    "input" : 12,
                    "interpolation" : "LINEAR",
                    "output" : 13
                },
                {
                    "input" : 12,
                    "interpolation" : "LINEAR",
                    "output" : 14
                },
                {
                    "input" : 15,
                    "interpolation" : "LINEAR",
                    "output" : 16
                }
            ]
        }
    ],
    "materials" : [
        {
            "doubleSided" : true,
            "name" : "Material.001",
            "pbrMetallicRoughness" : {
                "baseColorTexture" : {
                    "index" : 0
                },
                "metallicFactor" : 0,
                "roughnessFactor" : 0.5
            }
        }
    ],
    "meshes" : [
        {
            "name" : "Plane.001",
            "primitives" : [
                {
                    "attributes" : {
                        "POSITION" : 0,
                        "NORMAL" : 1,
                        "TEXCOORD_0" : 2,
                        "JOINTS_0" : 3,
                        "WEIGHTS_0" : 4
                    },
                    "indices" : 5,
                    "material" : 0
                }
            ]
        }
    ],
    "textures" : [
        {
            "sampler" : 0,
            "source" : 0
        }
    ],
    "images" : [
        {
            "mimeType" : "image/jpeg",
            "name" : "knife",
            "uri" : "knife.jpg"
        }
    ],
    "skins" : [
        {
            "inverseBindMatrices" : 6,
            "joints" : [
                0
            ],
            "name" : "Armature"
        }
    ],
    "accessors" : [
        {
            "bufferView" : 0,
            "componentType" : 5126,
            "count" : 895,
            "max" : [
                0.7557864189147949,
                0.8112794160842896,
                -0.09386050701141357
            ],
            "min" : [
                -1.223989486694336,
                -0.6179607510566711,
                -1.314664363861084
            ],
            "type" : "VEC3"
        },
        {
            "bufferView" : 1,
            "componentType" : 5126,
            "count" : 895,
            "type" : "VEC3"
        },
        {
            "bufferView" : 2,
            "componentType" : 5126,
            "count" : 895,
            "type" : "VEC2"
        },
        {
            "bufferView" : 3,
            "componentType" : 5121,
            "count" : 895,
            "type" : "VEC4"
        },
        {
            "bufferView" : 4,
            "componentType" : 5126,
            "count" : 895,
            "type" : "VEC4"
        },
        {
            "bufferView" : 5,
            "componentType" : 5123,
            "count" : 3384,
            "type" : "SCALAR"
        },
        {
            "bufferView" : 6,
            "componentType" : 5126,
            "count" : 1,
            "type" : "MAT4"
        },
        {
            "bufferView" : 7,
            "componentType" : 5126,
            "count" : 40,
            "max" : [
                1.6666666194796562
            ],
            "min" : [
                0.04166661947965622
            ],
            "type" : "SCALAR"
        },
        {
            "bufferView" : 8,
            "componentType" : 5126,
            "count" : 40,
            "type" : "VEC3"
        },
        {
            "bufferView" : 9,
            "componentType" : 5126,
            "count" : 2,
            "max" : [
                1.6666666194796562
            ],
            "min" : [
                0.04166661947965622
            ],
            "type" : "SCALAR"
        },
        {
            "bufferView" : 10,
            "componentType" : 5126,
            "count" : 2,
            "type" : "VEC4"
        },
        {
            "bufferView" : 11,
            "componentType" : 5126,
            "count" : 2,
            "type" : "VEC3"
        },
        {
            "bufferView" : 12,
            "componentType" : 5126,
            "count" : 30,
            "max" : [
                1.25
            ],
            "min" : [
                0.041666666666666664
            ],
            "type" : "SCALAR"
        },
        {
            "bufferView" : 13,
            "componentType" : 5126,
            "count" : 30,
            "type" : "VEC3"
        },
        {
            "bufferView" : 14,
            "componentType" : 5126,
            "count" : 30,
            "type" : "VEC4"
        },
        {
            "bufferView" : 15,
            "componentType" : 5126,
            "count" : 2,
            "max" : [
                1.25
            ],
            "min" : [
                0.041666666666666664
            ],
            "type" : "SCALAR"
        },
        {
            "bufferView" : 16,
            "componentType" : 5126,
            "count" : 2,
            "type" : "VEC3"
        }
    ],
    "bufferViews" : [
        {
            "buffer" : 0,
            "byteLength" : 10740,
            "byteOffset" : 0
        },
        {
            "buffer" : 0,
            "byteLength" : 10740,
            "byteOffset" : 10740
        },
        {
            "buffer" : 0,
            "byteLength" : 7160,
            "byteOffset" : 21480
        },
        {
            "buffer" : 0,
            "byteLength" : 3580,
            "byteOffset" : 28640
        },
        {
            "buffer" : 0,
            "byteLength" : 14320,
            "byteOffset" : 32220
        },
        {
            "buffer" : 0,
            "byteLength" : 6768,
            "byteOffset" : 46540
        },
        {
            "buffer" : 0,
            "byteLength" : 64,
            "byteOffset" : 53308
        },
        {
            "buffer" : 0,
            "byteLength" : 160,
            "byteOffset" : 53372
        },
        {
            "buffer" : 0,
            "byteLength" : 480,
            "byteOffset" : 53532
        },
        {
            "buffer" : 0,
            "byteLength" : 8,
            "byteOffset" : 54012
        },
        {
            "buffer" : 0,
            "byteLength" : 32,
            "byteOffset" : 54020
        },
        {
            "buffer" : 0,
            "byteLength" : 24,
            "byteOffset" : 54052
        },
        {
            "buffer" : 0,
            "byteLength" : 120,
            "byteOffset" : 54076
        },
        {
            "buffer" : 0,
            "byteLength" : 360,
            "byteOffset" : 54196
        },
        {
            "buffer" : 0,
            "byteLength" : 480,
            "byteOffset" : 54556
        },
        {
            "buffer" : 0,
            "byteLength" : 8,
            "byteOffset" : 55036
        },
        {
            "buffer" : 0,
            "byteLength" : 24,
            "byteOffset" : 55044
        }
    ],
    "samplers" : [
        {
            "magFilter" : 9729,
            "minFilter" : 9987
        }
    ],
    "buffers" : [
        {
            "byteLength" : 55068,
            "uri" : "knife.bin"
        }
    ]
}
