# Blender v3.0.0 OBJ File: ''
# www.blender.org
mtllib untitled.mtl
o Cube_Cube.001
v -1.000000 -1.000000 1.000000
v -1.000000 1.000000 1.000000
v -1.000000 -1.000000 -1.000000
v -1.000000 1.000000 -1.000000
v 1.000000 -1.000000 1.000000
v 1.000000 1.000000 1.000000
v 1.000000 -1.000000 -1.000000
v 1.000000 1.000000 -1.000000
v -1.000000 6.120356 1.000000
v -1.000000 6.120356 -1.000000
v 1.000000 6.120356 -1.000000
v 1.000000 6.120356 1.000000
v 6.993854 1.000000 -1.000000
v 6.993854 1.000000 1.000000
v 6.993854 6.120356 -1.000000
v 6.993854 6.120356 1.000000
v 2.882931 4.511828 3.847038
v 2.882931 2.608528 3.847038
v 5.110922 4.511828 3.847038
v 5.110922 2.608528 3.847038
vt 0.898467 0.000000
vt 0.898467 0.126818
vt 0.771649 0.126818
vt 0.771649 0.000000
vt 0.000000 0.000000
vt 0.126818 0.000000
vt 0.126818 0.126818
vt 0.000000 0.126818
vt 0.875004 0.831556
vt 0.875004 0.958374
vt 0.748187 0.958374
vt 0.748187 0.831556
vt 0.126818 0.506881
vt 0.126818 0.633698
vt 0.000000 0.633698
vt 0.000000 0.506881
vt 1.000000 0.831556
vt 1.000000 0.958374
vt 0.875004 0.958374
vt 0.875004 0.831556
vt 0.432341 0.886944
vt 0.307345 0.886944
vt 0.307345 0.506881
vt 0.432341 0.506881
vt 0.451493 0.126818
vt 0.451493 0.000000
vt 0.576489 0.000000
vt 0.576489 0.126818
vt 0.898467 0.451493
vt 0.771649 0.451493
vt 0.126818 0.958374
vt 0.000000 0.958374
vt 0.808028 0.506881
vt 0.934845 0.506881
vt 0.934845 0.831556
vt 0.808028 0.831556
vt 0.307345 0.735693
vt 0.307345 0.856379
vt 0.451493 0.506881
vt 0.126818 0.506881
vt 0.576489 0.506881
vt 0.748187 0.972830
vt 0.627501 0.972830
vt 0.627501 0.831556
vt 0.748187 0.831556
vt 0.771649 0.246212
vt 0.771649 0.387486
vt 0.627501 0.626275
vt 0.627501 0.767550
vt 0.627501 0.729561
vt 0.627501 0.608875
vn -1.0000 0.0000 0.0000
vn 0.0000 0.0000 -1.0000
vn 1.0000 0.0000 0.0000
vn 0.0000 0.0000 1.0000
vn 0.0000 -1.0000 0.0000
vn 0.0000 1.0000 0.0000
vn -0.8341 0.0000 0.5516
vn 0.0000 0.8707 0.4919
vn 0.0000 -0.8707 0.4919
vn 0.8341 0.0000 0.5516
usemtl Material.001
s off
f 1/1/1 2/2/1 4/3/1 3/4/1
f 3/5/2 4/6/2 8/7/2 7/8/2
f 7/9/3 8/10/3 6/11/3 5/12/3
f 5/13/4 6/14/4 2/15/4 1/16/4
f 3/17/5 7/18/5 5/19/5 1/20/5
f 6/21/5 8/22/5 13/23/5 14/24/5
f 11/25/6 10/26/6 9/27/6 12/28/6
f 4/3/1 2/2/1 9/29/1 10/30/1
f 2/15/4 6/14/4 12/31/4 9/32/4
f 8/7/2 4/6/2 10/26/2 11/25/2
f 14/33/3 13/34/3 15/35/3 16/36/3
f 12/31/7 6/14/7 18/37/7 17/38/7
f 8/7/2 11/25/2 15/39/2 13/40/2
f 11/25/6 12/28/6 16/41/6 15/39/6
f 17/42/4 18/43/4 20/44/4 19/45/4
f 16/41/8 12/28/8 17/46/8 19/47/8
f 6/21/9 14/24/9 20/48/9 18/49/9
f 14/33/10 16/36/10 19/50/10 20/51/10
