{
    "asset" : {
        "generator" : "Khronos glTF Blender I/O v1.7.33",
        "version" : "2.0"
    },
    "scene" : 0,
    "scenes" : [
        {
            "name" : "Scene",
            "nodes" : [
                0
            ]
        }
    ],
    "nodes" : [
        {
            "mesh" : 0,
            "name" : "table"
        }
    ],
    "materials" : [
        {
            "doubleSided" : true,
            "name" : "WhiteCupboard",
            "pbrMetallicRoughness" : {
                "baseColorFactor" : [
                    0.9819194674491882,
                    0.9819194674491882,
                    0.9819194674491882,
                    1
                ],
                "metallicFactor" : 0,
                "roughnessFactor" : 0.5
            }
        },
        {
            "doubleSided" : true,
            "name" : "Metal2",
            "pbrMetallicRoughness" : {
                "baseColorFactor" : [
                    0.800000011920929,
                    0.800000011920929,
                    0.800000011920929,
                    1
                ],
                "roughnessFactor" : 0.26363635063171387
            }
        },
        {
            "doubleSided" : true,
            "name" : "Wheel",
            "pbrMetallicRoughness" : {
                "baseColorFactor" : [
                    0.04570244625210762,
                    0.04570244625210762,
                    0.04570244625210762,
                    1
                ],
                "metallicFactor" : 0,
                "roughnessFactor" : 0.5
            }
        }
    ],
    "meshes" : [
        {
            "name" : "Cube.003",
            "primitives" : [
                {
                    "attributes" : {
                        "POSITION" : 0,
                        "NORMAL" : 1,
                        "TEXCOORD_0" : 2
                    },
                    "indices" : 3,
                    "material" : 0
                },
                {
                    "attributes" : {
                        "POSITION" : 4,
                        "NORMAL" : 5,
                        "TEXCOORD_0" : 6
                    },
                    "indices" : 7,
                    "material" : 1
                },
                {
                    "attributes" : {
                        "POSITION" : 8,
                        "NORMAL" : 9,
                        "TEXCOORD_0" : 10
                    },
                    "indices" : 11,
                    "material" : 2
                }
            ]
        }
    ],
    "accessors" : [
        {
            "bufferView" : 0,
            "componentType" : 5126,
            "count" : 57,
            "max" : [
                0.4464666247367859,
                0.04704338312149048,
                1.0000001192092896
            ],
            "min" : [
                -0.45064038038253784,
                0.03197026252746582,
                -0.9999999403953552
            ],
            "type" : "VEC3"
        },
        {
            "bufferView" : 1,
            "componentType" : 5126,
            "count" : 57,
            "type" : "VEC3"
        },
        {
            "bufferView" : 2,
            "componentType" : 5126,
            "count" : 57,
            "type" : "VEC2"
        },
        {
            "bufferView" : 3,
            "componentType" : 5123,
            "count" : 96,
            "type" : "SCALAR"
        },
        {
            "bufferView" : 4,
            "componentType" : 5126,
            "count" : 281,
            "max" : [
                0.2203407883644104,
                0.03197026252746582,
                0.5000000596046448
            ],
            "min" : [
                -0.22451454401016235,
                -0.6648244261741638,
                -0.4999999403953552
            ],
            "type" : "VEC3"
        },
        {
            "bufferView" : 5,
            "componentType" : 5126,
            "count" : 281,
            "type" : "VEC3"
        },
        {
            "bufferView" : 6,
            "componentType" : 5126,
            "count" : 281,
            "type" : "VEC2"
        },
        {
            "bufferView" : 7,
            "componentType" : 5123,
            "count" : 414,
            "type" : "SCALAR"
        },
        {
            "bufferView" : 8,
            "componentType" : 5126,
            "count" : 240,
            "max" : [
                0.257135808467865,
                -0.6553271412849426,
                0.5142589211463928
            ],
            "min" : [
                -0.26162219047546387,
                -0.7438645958900452,
                -0.5142588019371033
            ],
            "type" : "VEC3"
        },
        {
            "bufferView" : 9,
            "componentType" : 5126,
            "count" : 240,
            "type" : "VEC3"
        },
        {
            "bufferView" : 10,
            "componentType" : 5126,
            "count" : 240,
            "type" : "VEC2"
        },
        {
            "bufferView" : 11,
            "componentType" : 5123,
            "count" : 240,
            "type" : "SCALAR"
        }
    ],
    "bufferViews" : [
        {
            "buffer" : 0,
            "byteLength" : 684,
            "byteOffset" : 0
        },
        {
            "buffer" : 0,
            "byteLength" : 684,
            "byteOffset" : 684
        },
        {
            "buffer" : 0,
            "byteLength" : 456,
            "byteOffset" : 1368
        },
        {
            "buffer" : 0,
            "byteLength" : 192,
            "byteOffset" : 1824
        },
        {
            "buffer" : 0,
            "byteLength" : 3372,
            "byteOffset" : 2016
        },
        {
            "buffer" : 0,
            "byteLength" : 3372,
            "byteOffset" : 5388
        },
        {
            "buffer" : 0,
            "byteLength" : 2248,
            "byteOffset" : 8760
        },
        {
            "buffer" : 0,
            "byteLength" : 828,
            "byteOffset" : 11008
        },
        {
            "buffer" : 0,
            "byteLength" : 2880,
            "byteOffset" : 11836
        },
        {
            "buffer" : 0,
            "byteLength" : 2880,
            "byteOffset" : 14716
        },
        {
            "buffer" : 0,
            "byteLength" : 1920,
            "byteOffset" : 17596
        },
        {
            "buffer" : 0,
            "byteLength" : 480,
            "byteOffset" : 19516
        }
    ],
    "buffers" : [
        {
            "byteLength" : 19996,
            "uri" : "Table.bin"
        }
    ]
}
